<svg width="593" height="200" viewBox="0 0 593 200" fill="none" xmlns="http://www.w3.org/2000/svg">
<path d="M255.152 5.47657C269.426 4.49219 282.038 4 292.989 4C323.382 4 338.578 14.1514 338.578 34.4542C338.578 42.0831 336.364 48.6662 331.934 54.2033C327.504 59.6174 320.429 63.3088 310.708 65.2776C320.06 66.385 327.443 69.2151 332.857 73.7678C338.271 78.3206 340.978 86.2571 340.978 97.5775C340.978 121.326 325.782 133.2 295.389 133.2H255.152V5.47657ZM270.472 131.354H295.389C306.34 131.354 314.092 128.524 318.645 122.864C323.321 117.08 325.658 108.283 325.658 96.4701C325.658 84.6575 323.321 76.7825 318.645 72.845C313.969 68.9075 307.017 66.8157 297.788 66.5696H270.472V131.354ZM292.989 5.84571C285.853 5.84571 278.347 6.27638 270.472 7.13771V64.7239H297.788C315.138 63.9856 323.813 54.0187 323.813 34.8234C323.813 25.4718 321.229 18.335 316.061 13.4131C310.893 8.36818 303.202 5.84571 292.989 5.84571Z" fill="#00A652"/>
<path d="M239.152 133V105.06H228.254V122.114H171.22V74.3986H229.526V63.5129H171.22V16.8857H225.711V33.94H236.609V6H148.152V16.8857H159.777V122.114H148.152V133H239.152Z" fill="#FEABD5"/>
<path d="M132.153 106.037L105.021 133.539H87.1175L66.0764 112.128L45.2199 133.539H27.1319L0 106.037V6H18.2725V100.87L34.8839 118.035H39.8673L56.8479 100.87V6H75.1204V100.87L92.1009 118.035H97.2689L113.88 101.423V6H132.153V106.037Z" fill="#FECE00"/>
<path d="M437.45 98.0468C437.45 109.023 433.997 118.149 427.09 125.426C418.95 133.936 408.159 138.19 394.716 138.19C388.796 138.19 383.555 137.389 378.992 135.786C374.552 134.182 370.544 131.962 366.967 129.126C363.761 126.412 361.294 123.268 359.567 119.691C357.841 115.991 356.978 112.106 356.978 108.036C356.978 104.337 358.272 101.438 360.862 99.3417C362.096 98.2318 363.822 97.6768 366.042 97.6768C371.469 97.6768 374.182 100.637 374.182 106.556C374.182 107.42 373.997 108.53 373.627 109.886C373.38 111.12 373.257 112.106 373.257 112.846C373.257 114.696 373.442 116.731 373.812 118.951C374.182 121.048 374.86 122.651 375.847 123.761C380.78 128.694 387.07 131.161 394.716 131.161C398.416 131.161 402.363 130.236 406.556 128.386C410.749 126.536 414.079 124.193 416.546 121.356C421.849 115.313 424.5 107.358 424.5 97.4918C424.5 89.8454 421.417 83.1239 415.251 77.3275C411.797 74.1209 408.159 71.8393 404.336 70.4827C400.513 69.0027 395.826 68.2628 390.276 68.2628C389.783 68.2628 389.228 68.3244 388.611 68.4477C388.118 68.4477 387.563 68.5094 386.947 68.6327C386.33 68.7561 385.837 68.8794 385.467 69.0027C385.097 69.0027 384.788 69.0027 384.542 69.0027C382.938 69.0027 381.828 68.1394 381.212 66.4128C380.965 65.6728 380.78 65.0562 380.657 64.5629C380.657 63.9462 380.657 63.3296 380.657 62.7129C380.657 60.863 381.52 59.8147 383.247 59.568C383.863 59.4447 384.418 59.4447 384.912 59.568C385.405 59.568 386.022 59.6297 386.762 59.753C387.502 59.8764 388.118 59.9997 388.611 60.123C389.228 60.123 389.783 60.123 390.276 60.123C392.62 60.123 395.025 59.8147 397.491 59.198C400.081 58.4581 402.548 57.5948 404.891 56.6081C408.344 55.0049 410.934 53.3399 412.661 51.6133C418.334 46.8035 421.17 40.5137 421.17 32.7439C421.17 25.0975 419.197 19.116 415.251 14.7995C413.154 12.5796 410.564 10.7296 407.481 9.2497C404.521 7.64642 401.376 6.78311 398.046 6.65978H394.901C394.408 6.65978 393.915 6.65978 393.421 6.65978C392.928 6.65978 392.435 6.72145 391.941 6.84477C386.392 7.33809 382.075 9.12637 378.992 12.2096C377.142 14.0595 376.217 16.0945 376.217 18.3144C376.217 19.301 376.402 20.3493 376.772 21.4593C377.142 22.4459 377.389 23.4942 377.512 24.6042C377.759 25.7142 377.882 26.6391 377.882 27.3791C377.882 30.339 377.204 32.6823 375.847 34.4089C374.614 36.0121 372.64 36.8138 369.927 36.8138L369.742 36.6288C364.316 36.2588 361.602 32.9289 361.602 26.6391C361.602 19.6094 364.747 13.5662 371.037 8.50972C377.327 3.57655 384.665 0.801637 393.051 0.184992C393.668 0.0616638 394.47 0 395.456 0H398.046C408.776 0.123328 417.471 3.1449 424.13 9.06471C430.543 14.9845 433.75 22.8776 433.75 32.7439C433.75 40.8836 430.975 47.9134 425.425 53.8332C421.355 58.2731 416.176 61.7263 409.886 64.1929C417.902 66.6595 424.13 70.4827 428.57 75.6625C434.49 82.3223 437.45 89.7837 437.45 98.0468Z" fill="#F57D31"/>
<path d="M586.859 60.0971V78.0439H549.955V133H528.45V4H592.45V22.7075H549.955V60.0971H586.859Z" fill="#EDEDED"/>
<path d="M512.45 106.912C512.45 118.948 508.689 127.501 501.427 133H455.113V115.053H494.168V111.804L460.402 49.4341C455.649 40.6524 453.45 33.8019 453.45 28.7567C453.45 22.4491 454.731 17.3156 457.171 13.2448C459.543 9.2873 463.094 6.19437 467.938 4H509.864V22.7075H473.584V25.9479L503.644 82.4188L503.65 82.431C509.673 93.5641 512.45 101.653 512.45 106.912Z" fill="#EDEDED"/>
<path d="M423.207 157.727H429.275L435.684 173.364H435.957L442.366 157.727H448.434V181H443.662V165.852H443.468L437.446 180.886H434.196L428.173 165.795H427.98V181H423.207V157.727ZM451.757 181V163.545H456.598V181H451.757ZM454.189 161.295C453.47 161.295 452.852 161.057 452.337 160.58C451.829 160.095 451.576 159.515 451.576 158.841C451.576 158.174 451.829 157.602 452.337 157.125C452.852 156.64 453.47 156.398 454.189 156.398C454.909 156.398 455.523 156.64 456.03 157.125C456.545 157.602 456.803 158.174 456.803 158.841C456.803 159.515 456.545 160.095 456.03 160.58C455.523 161.057 454.909 161.295 454.189 161.295ZM464.677 170.909V181H459.836V163.545H464.45V166.625H464.654C465.041 165.61 465.688 164.807 466.598 164.216C467.507 163.617 468.609 163.318 469.904 163.318C471.116 163.318 472.173 163.583 473.075 164.114C473.976 164.644 474.677 165.402 475.177 166.386C475.677 167.364 475.927 168.53 475.927 169.886V181H471.086V170.75C471.094 169.682 470.821 168.848 470.268 168.25C469.715 167.644 468.954 167.341 467.984 167.341C467.332 167.341 466.757 167.481 466.257 167.761C465.764 168.042 465.378 168.451 465.098 168.989C464.825 169.519 464.685 170.159 464.677 170.909ZM479.102 181V163.545H483.943V181H479.102ZM481.534 161.295C480.815 161.295 480.197 161.057 479.682 160.58C479.174 160.095 478.921 159.515 478.921 158.841C478.921 158.174 479.174 157.602 479.682 157.125C480.197 156.64 480.815 156.398 481.534 156.398C482.254 156.398 482.868 156.64 483.375 157.125C483.89 157.602 484.148 158.174 484.148 158.841C484.148 159.515 483.89 160.095 483.375 160.58C482.868 161.057 482.254 161.295 481.534 161.295ZM506.663 164.42C506.572 163.504 506.182 162.792 505.493 162.284C504.804 161.777 503.868 161.523 502.686 161.523C501.883 161.523 501.205 161.636 500.652 161.864C500.099 162.083 499.675 162.39 499.379 162.784C499.091 163.178 498.947 163.625 498.947 164.125C498.932 164.542 499.019 164.905 499.209 165.216C499.406 165.527 499.675 165.795 500.016 166.023C500.357 166.242 500.75 166.436 501.197 166.602C501.644 166.761 502.122 166.898 502.629 167.011L504.72 167.511C505.735 167.739 506.667 168.042 507.516 168.42C508.364 168.799 509.099 169.265 509.72 169.818C510.341 170.371 510.822 171.023 511.163 171.773C511.512 172.523 511.69 173.383 511.697 174.352C511.69 175.777 511.326 177.011 510.607 178.057C509.894 179.095 508.864 179.902 507.516 180.477C506.175 181.045 504.557 181.33 502.663 181.33C500.785 181.33 499.148 181.042 497.754 180.466C496.368 179.89 495.285 179.038 494.504 177.909C493.732 176.773 493.326 175.367 493.288 173.693H498.05C498.103 174.473 498.326 175.125 498.72 175.648C499.122 176.163 499.656 176.553 500.322 176.818C500.997 177.076 501.758 177.205 502.607 177.205C503.44 177.205 504.163 177.083 504.777 176.841C505.398 176.598 505.879 176.261 506.22 175.83C506.561 175.398 506.732 174.902 506.732 174.341C506.732 173.818 506.576 173.379 506.266 173.023C505.963 172.667 505.516 172.364 504.925 172.114C504.341 171.864 503.625 171.636 502.777 171.432L500.243 170.795C498.281 170.318 496.732 169.572 495.595 168.557C494.459 167.542 493.894 166.174 493.902 164.455C493.894 163.045 494.269 161.814 495.027 160.761C495.792 159.708 496.841 158.886 498.175 158.295C499.508 157.705 501.023 157.409 502.72 157.409C504.447 157.409 505.955 157.705 507.243 158.295C508.538 158.886 509.546 159.708 510.266 160.761C510.985 161.814 511.357 163.034 511.379 164.42H506.663ZM522.231 181.341C520.435 181.341 518.89 180.977 517.594 180.25C516.306 179.515 515.314 178.477 514.617 177.136C513.92 175.788 513.572 174.193 513.572 172.352C513.572 170.557 513.92 168.981 514.617 167.625C515.314 166.269 516.295 165.212 517.56 164.455C518.833 163.697 520.325 163.318 522.038 163.318C523.189 163.318 524.261 163.504 525.253 163.875C526.253 164.239 527.125 164.788 527.867 165.523C528.617 166.258 529.2 167.182 529.617 168.295C530.034 169.402 530.242 170.697 530.242 172.182V173.511H515.503V170.511H525.685C525.685 169.814 525.534 169.197 525.231 168.659C524.928 168.121 524.507 167.701 523.969 167.398C523.439 167.087 522.822 166.932 522.117 166.932C521.382 166.932 520.731 167.102 520.163 167.443C519.602 167.777 519.163 168.227 518.844 168.795C518.526 169.356 518.363 169.981 518.356 170.67V173.523C518.356 174.386 518.515 175.133 518.833 175.761C519.159 176.39 519.617 176.875 520.208 177.216C520.799 177.557 521.5 177.727 522.31 177.727C522.848 177.727 523.341 177.652 523.788 177.5C524.235 177.348 524.617 177.121 524.935 176.818C525.253 176.515 525.496 176.144 525.663 175.705L530.14 176C529.913 177.076 529.447 178.015 528.742 178.818C528.045 179.614 527.144 180.235 526.038 180.682C524.939 181.121 523.67 181.341 522.231 181.341ZM532.761 181V163.545H537.454V166.591H537.636C537.954 165.508 538.488 164.689 539.238 164.136C539.988 163.576 540.852 163.295 541.829 163.295C542.072 163.295 542.333 163.311 542.613 163.341C542.894 163.371 543.14 163.413 543.352 163.466V167.761C543.125 167.693 542.81 167.633 542.409 167.58C542.007 167.527 541.64 167.5 541.307 167.5C540.595 167.5 539.958 167.655 539.398 167.966C538.845 168.269 538.405 168.693 538.079 169.239C537.761 169.784 537.602 170.413 537.602 171.125V181H532.761ZM545.215 181V163.545H550.056V181H545.215ZM547.647 161.295C546.927 161.295 546.31 161.057 545.794 160.58C545.287 160.095 545.033 159.515 545.033 158.841C545.033 158.174 545.287 157.602 545.794 157.125C546.31 156.64 546.927 156.398 547.647 156.398C548.366 156.398 548.98 156.64 549.488 157.125C550.003 157.602 550.26 158.174 550.26 158.841C550.26 159.515 550.003 160.095 549.488 160.58C548.98 161.057 548.366 161.295 547.647 161.295ZM561.248 181.341C559.453 181.341 557.907 180.977 556.612 180.25C555.324 179.515 554.332 178.477 553.635 177.136C552.938 175.788 552.589 174.193 552.589 172.352C552.589 170.557 552.938 168.981 553.635 167.625C554.332 166.269 555.313 165.212 556.578 164.455C557.851 163.697 559.343 163.318 561.055 163.318C562.207 163.318 563.279 163.504 564.271 163.875C565.271 164.239 566.142 164.788 566.885 165.523C567.635 166.258 568.218 167.182 568.635 168.295C569.051 169.402 569.26 170.697 569.26 172.182V173.511H554.521V170.511H564.703C564.703 169.814 564.551 169.197 564.248 168.659C563.945 168.121 563.525 167.701 562.987 167.398C562.457 167.087 561.839 166.932 561.135 166.932C560.4 166.932 559.748 167.102 559.18 167.443C558.619 167.777 558.18 168.227 557.862 168.795C557.544 169.356 557.381 169.981 557.373 170.67V173.523C557.373 174.386 557.532 175.133 557.851 175.761C558.176 176.39 558.635 176.875 559.226 177.216C559.816 177.557 560.517 177.727 561.328 177.727C561.866 177.727 562.358 177.652 562.805 177.5C563.252 177.348 563.635 177.121 563.953 176.818C564.271 176.515 564.513 176.144 564.68 175.705L569.157 176C568.93 177.076 568.464 178.015 567.76 178.818C567.063 179.614 566.161 180.235 565.055 180.682C563.957 181.121 562.688 181.341 561.248 181.341ZM586.301 168.523L581.87 168.795C581.794 168.417 581.631 168.076 581.381 167.773C581.131 167.462 580.801 167.216 580.392 167.034C579.991 166.845 579.51 166.75 578.949 166.75C578.199 166.75 577.567 166.909 577.051 167.227C576.536 167.538 576.279 167.955 576.279 168.477C576.279 168.894 576.445 169.246 576.779 169.534C577.112 169.822 577.684 170.053 578.495 170.227L581.654 170.864C583.351 171.212 584.616 171.773 585.449 172.545C586.282 173.318 586.699 174.333 586.699 175.591C586.699 176.735 586.362 177.739 585.688 178.602C585.021 179.466 584.104 180.14 582.938 180.625C581.779 181.102 580.442 181.341 578.926 181.341C576.616 181.341 574.775 180.86 573.404 179.898C572.04 178.928 571.241 177.61 571.006 175.943L575.767 175.693C575.911 176.398 576.26 176.936 576.813 177.307C577.366 177.67 578.074 177.852 578.938 177.852C579.786 177.852 580.468 177.689 580.983 177.364C581.506 177.03 581.771 176.602 581.779 176.08C581.771 175.64 581.586 175.28 581.222 175C580.858 174.712 580.298 174.492 579.54 174.341L576.517 173.739C574.813 173.398 573.544 172.807 572.711 171.966C571.885 171.125 571.472 170.053 571.472 168.75C571.472 167.629 571.775 166.663 572.381 165.852C572.995 165.042 573.854 164.417 574.961 163.977C576.074 163.538 577.377 163.318 578.87 163.318C581.074 163.318 582.809 163.784 584.074 164.716C585.347 165.648 586.089 166.917 586.301 168.523Z" fill="white"/>
</svg>
